HIERARCHY
ROOT hip
{
  OFFSET 0.0 0.0 0.0
  CHANNELS 6 Xposition Yposition Zposition Zrotation Yrotation Xrotation
  JOINT torso
  {
    OFFSET 0.0 0.0 0.0
    CHANNELS 3 Zrotation Xrotation Yrotation
    JOINT neck
    {
      OFFSET -20.11218299999996 327.95800799999995 66.30578600000035
      CHANNELS 3 Zrotation Xrotation Yrotation
      JOINT head
      {
        OFFSET 18.28939800000012 288.83178699999996 217.81652800000006
        CHANNELS 3 Zrotation Xrotation Yrotation
        End Site
        {
          OFFSET 0.0 0.0 0.0
        }
      }
    }
    JOINT left_collar
    {
      OFFSET -20.11218299999996 327.95800799999995 66.30578600000035
      CHANNELS 3 Zrotation Xrotation Yrotation
      JOINT left_upper_arm
      {
        OFFSET -127.08163400000001 -16.17407199999991 15.44799799999987
        CHANNELS 3 Zrotation Xrotation Yrotation
        JOINT left_forearm
        {
          OFFSET -234.267792 45.78796399999999 109.31286600000021
          CHANNELS 3 Zrotation Xrotation Yrotation
          JOINT left_hand
          {
            OFFSET -259.114014 -33.25433399999997 16.18847699999992
            CHANNELS 3 Zrotation Xrotation Yrotation
            End Site
            {
              OFFSET 0.0 0.0 0.0
            }
          }
        }
      }
    }
    JOINT right_collar
    {
      OFFSET -20.11218299999996 327.95800799999995 66.30578600000035
      CHANNELS 3 Zrotation Xrotation Yrotation
      JOINT right_upper_arm
      {
        OFFSET 164.513184 1.5733030000000099 4.892333999999892
        CHANNELS 3 Zrotation Xrotation Yrotation
        JOINT right_forearm
        {
          OFFSET 260.742027 48.718444999999974 144.35229500000014
          CHANNELS 3 Zrotation Xrotation Yrotation
          JOINT right_hand
          {
            OFFSET 287.85150899999996 -44.57171600000015 13.96813899999961
            CHANNELS 3 Zrotation Xrotation Yrotation
            End Site
            {
              OFFSET 0.0 0.0 0.0
            }
          }
        }
      }
    }
  }
}
MOTION
Frames: 6
Frame Time: 0.01
-265.72978974491866 243.25403163991078 1447.0677741510322 1.4182848076823187 -6.350411828479734 -3.192099768686886 0.5096390495979289 0.7002191660140469 -0.05706832525410221 -0.11141450846212808 -7.421431025514059 0.5356741460795502 0.0 0.0 0.0 5.166725180677582 0.9826172408116209 -2.0092437293500427 61.655689166560826 30.75015623741047 -6.178830693741021 0.15729704310277415 1.1212003750858222 -8.510935739782592 0.0 0.0 0.0 -3.2018944978872854 0.08990378337471985 -0.28875410388239187 -64.81596341890864 41.57641399567292 12.694825777682315 -3.7426360573477866 0.0989401743877785 -0.44380036667934714 0.0 0.0 0.0
-265.8473049876053 242.92336974933025 1447.4768520443467 1.439149999695125 -6.487757301731667 -3.15779360949992 0.5053950423976638 0.7069070936280903 -0.05579515724552144 -0.11142958853716745 -7.341515965951644 0.5310342329407947 0.0 0.0 0.0 5.179647018997381 0.9786158710018682 -1.9759176084448182 61.47680186947845 30.773479443310887 -6.444353061376388 0.19430505805486947 1.1348446481790926 -8.575380398582531 0.0 0.0 0.0 -3.1946792317191277 0.0898291275880581 -0.2821147930839578 -64.70484280745893 41.559213128157346 12.802726502398151 -3.796344630974037 0.1229307324897078 -0.32965368158779684 0.0 0.0 0.0
-265.96736885258997 242.58490261358043 1447.8935851275264 1.460013657426834 -6.627286543285011 -3.1230345640229626 0.5013010364701479 0.7135030281119209 -0.054557948322014695 -0.11161923618287949 -7.26070385012041 0.5264740082674354 0.0 0.0 0.0 5.192092397912591 0.9746326460591244 -1.9431208227952994 61.29660745055197 30.79548552753179 -6.710057875272511 0.2330860417481666 1.1491484090654955 -8.642592835990895 0.0 0.0 0.0 -3.187141680370348 0.08976073326653826 -0.2746049332879987 -64.59213313282186 41.5409710942931 12.911033127534399 -3.8517546764439 0.1477373088643895 -0.21222273987047954 0.0 0.0 0.0
-266.09113396694414 242.237498654782 1448.318599392879 1.480924734920818 -6.769126049455288 -3.0881973349932625 0.4974135122362346 0.7199384749653244 -0.0533722454313433 -0.1120659190758739 -7.17950742147882 0.5220874303925963 0.0 0.0 0.0 5.2036999226835645 0.970696685157692 -1.9113066090403392 61.11553720550971 30.815615747951178 -6.974198899840797 0.27484501904059566 1.164423202144567 -8.713594473115881 0.0 0.0 0.0 -3.1793254477728325 0.08970599794727238 -0.26587095072867634 -64.47725142915252 41.52133663534219 13.019849929085543 -3.909460242716747 0.17352128519037016 -0.09086549205210998 0.0 0.0 0.0
-266.2197607346116 241.88014881578684 1448.7523850985278 1.5019533978418578 -6.913389605901283 -3.0537214894468883 0.4937840345141929 0.7261583288832767 -0.05225173259773083 -0.11286651095082349 -7.098499765092884 0.5179832366939089 0.0 0.0 0.0 5.214112759586327 0.9668335850396244 -1.8809013118707056 60.933995732099845 30.833302449207086 -7.235017433491856 0.320792225698976 1.1809915425688413 -8.789443622731884 0.0 0.0 0.0 -3.1712875109468293 0.0896725396604199 -0.25556188946904146 -64.35959681381088 41.4999514709086 13.129295436149796 -3.970039845129996 0.20044438450978702 0.03504241166986199 0.0 0.0 0.0
-266.35437226601226 241.5120617609981 1449.1952049030474 1.5231897800215297 -7.060153379997191 -3.0201118613708497 0.49045715137699314 0.7321232441740486 -0.05120766859291697 -0.11413084373898978 -7.01831588809276 0.5142839107481587 0.0 0.0 0.0 5.222988114102008 0.9630645954888357 -1.8522926358748892 60.7523694518605 30.84798023564011 -7.490757101332681 0.37210268760281584 1.1991772751630465 -8.871199280243777 0.0 0.0 0.0 -3.16309923713084 0.0896680069987263 -0.24334178651058863 -64.238581647907 41.476462462843195 13.239485517026367 -4.034029939436251 0.22866045598015078 0.16607037533546523 0.0 0.0 0.0
